<svg width="349" height="321" viewBox="0 0 349 321" fill="none" xmlns="http://www.w3.org/2000/svg">
<path d="M37 175.215L309.919 26L348.1 95.835L75.1814 245.05L37 175.215Z" fill="white"/>
<path d="M57.1189 247V118.48H84.2989V224.5H136.499V247H57.1189ZM262.216 247H231.256L197.596 192.82L186.076 201.1V247H158.896V118.48H186.076V177.34C187.876 174.82 189.676 172.3 191.476 169.78C193.276 167.26 195.076 164.74 196.876 162.22L231.616 118.48H261.856L217.036 175.36L262.216 247Z" fill="#BD1919"/>
<path d="M48.605 37.9121L92.3408 14.0001L94.6033 18.1382L50.8675 42.0502L48.605 37.9121Z" fill="white"/>
<path d="M108.943 299H102.983V270.44H119.343V275.4H108.943V282.76H118.623V287.72H108.943V299ZM150.856 284.68C150.856 286.893 150.576 288.907 150.016 290.72C149.483 292.507 148.656 294.053 147.536 295.36C146.443 296.667 145.029 297.667 143.296 298.36C141.589 299.053 139.576 299.4 137.256 299.4C134.936 299.4 132.909 299.053 131.176 298.36C129.469 297.64 128.056 296.64 126.936 295.36C125.843 294.053 125.016 292.493 124.456 290.68C123.923 288.867 123.656 286.853 123.656 284.64C123.656 281.68 124.136 279.107 125.096 276.92C126.083 274.733 127.576 273.04 129.576 271.84C131.603 270.613 134.176 270 137.296 270C140.389 270 142.936 270.613 144.936 271.84C146.936 273.04 148.416 274.747 149.376 276.96C150.363 279.147 150.856 281.72 150.856 284.68ZM130.016 284.68C130.016 286.68 130.269 288.4 130.776 289.84C131.283 291.28 132.069 292.387 133.136 293.16C134.203 293.933 135.576 294.32 137.256 294.32C138.989 294.32 140.376 293.933 141.416 293.16C142.483 292.387 143.256 291.28 143.736 289.84C144.243 288.4 144.496 286.68 144.496 284.68C144.496 281.667 143.936 279.307 142.816 277.6C141.696 275.893 139.856 275.04 137.296 275.04C135.589 275.04 134.203 275.427 133.136 276.2C132.069 276.973 131.283 278.08 130.776 279.52C130.269 280.96 130.016 282.68 130.016 284.68ZM182.692 284.68C182.692 286.893 182.412 288.907 181.852 290.72C181.319 292.507 180.492 294.053 179.372 295.36C178.279 296.667 176.865 297.667 175.132 298.36C173.425 299.053 171.412 299.4 169.092 299.4C166.772 299.4 164.745 299.053 163.012 298.36C161.305 297.64 159.892 296.64 158.772 295.36C157.679 294.053 156.852 292.493 156.292 290.68C155.759 288.867 155.492 286.853 155.492 284.64C155.492 281.68 155.972 279.107 156.932 276.92C157.919 274.733 159.412 273.04 161.412 271.84C163.439 270.613 166.012 270 169.132 270C172.225 270 174.772 270.613 176.772 271.84C178.772 273.04 180.252 274.747 181.212 276.96C182.199 279.147 182.692 281.72 182.692 284.68ZM161.852 284.68C161.852 286.68 162.105 288.4 162.612 289.84C163.119 291.28 163.905 292.387 164.972 293.16C166.039 293.933 167.412 294.32 169.092 294.32C170.825 294.32 172.212 293.933 173.252 293.16C174.319 292.387 175.092 291.28 175.572 289.84C176.079 288.4 176.332 286.68 176.332 284.68C176.332 281.667 175.772 279.307 174.652 277.6C173.532 275.893 171.692 275.04 169.132 275.04C167.425 275.04 166.039 275.427 164.972 276.2C163.905 276.973 163.119 278.08 162.612 279.52C162.105 280.96 161.852 282.68 161.852 284.68ZM212.288 284.44C212.288 287.64 211.674 290.32 210.448 292.48C209.221 294.64 207.434 296.267 205.088 297.36C202.768 298.453 199.968 299 196.688 299H188.608V270.44H197.568C200.554 270.44 203.141 270.973 205.328 272.04C207.541 273.107 209.248 274.68 210.448 276.76C211.674 278.813 212.288 281.373 212.288 284.44ZM206.008 284.6C206.008 282.493 205.701 280.76 205.088 279.4C204.474 278.04 203.554 277.04 202.328 276.4C201.128 275.733 199.648 275.4 197.888 275.4H194.648V294H197.248C200.208 294 202.408 293.213 203.848 291.64C205.288 290.067 206.008 287.72 206.008 284.6Z" fill="#BD1919"/>
<path d="M52.9189 245L258.002 110L269.384 127.291L64.3012 262.292L52.9189 245Z" fill="white"/>
</svg>
