<svg width="94" height="49" viewBox="0 0 94 49" fill="none" xmlns="http://www.w3.org/2000/svg">
<path d="M28.24 33V7.296H33.676V28.5H44.116V33H28.24ZM69.2595 33H63.0675L56.3355 22.164L54.0315 23.82V33H48.5955V7.296H54.0315V19.068C54.3915 18.564 54.7515 18.06 55.1115 17.556C55.4715 17.052 55.8315 16.548 56.1915 16.044L63.1395 7.296H69.1875L60.2235 18.672L69.2595 33Z" fill="white"/>
<path d="M32.5828 48H30.7948V39.432H35.7028V40.92H32.5828V43.128H35.4868V44.616H32.5828V48ZM45.1568 43.704C45.1568 44.368 45.0728 44.972 44.9048 45.516C44.7448 46.052 44.4968 46.516 44.1608 46.908C43.8328 47.3 43.4088 47.6 42.8888 47.808C42.3768 48.016 41.7728 48.12 41.0768 48.12C40.3808 48.12 39.7728 48.016 39.2528 47.808C38.7408 47.592 38.3168 47.292 37.9808 46.908C37.6528 46.516 37.4048 46.048 37.2368 45.504C37.0768 44.96 36.9968 44.356 36.9968 43.692C36.9968 42.804 37.1408 42.032 37.4288 41.376C37.7248 40.72 38.1728 40.212 38.7728 39.852C39.3808 39.484 40.1528 39.3 41.0888 39.3C42.0168 39.3 42.7808 39.484 43.3808 39.852C43.9808 40.212 44.4248 40.724 44.7128 41.388C45.0088 42.044 45.1568 42.816 45.1568 43.704ZM38.9048 43.704C38.9048 44.304 38.9808 44.82 39.1328 45.252C39.2848 45.684 39.5208 46.016 39.8408 46.248C40.1608 46.48 40.5728 46.596 41.0768 46.596C41.5968 46.596 42.0128 46.48 42.3248 46.248C42.6448 46.016 42.8768 45.684 43.0208 45.252C43.1728 44.82 43.2488 44.304 43.2488 43.704C43.2488 42.8 43.0808 42.092 42.7448 41.58C42.4088 41.068 41.8568 40.812 41.0888 40.812C40.5768 40.812 40.1608 40.928 39.8408 41.16C39.5208 41.392 39.2848 41.724 39.1328 42.156C38.9808 42.588 38.9048 43.104 38.9048 43.704ZM54.7076 43.704C54.7076 44.368 54.6236 44.972 54.4556 45.516C54.2956 46.052 54.0476 46.516 53.7116 46.908C53.3836 47.3 52.9596 47.6 52.4396 47.808C51.9276 48.016 51.3236 48.12 50.6276 48.12C49.9316 48.12 49.3236 48.016 48.8036 47.808C48.2916 47.592 47.8676 47.292 47.5316 46.908C47.2036 46.516 46.9556 46.048 46.7876 45.504C46.6276 44.96 46.5476 44.356 46.5476 43.692C46.5476 42.804 46.6916 42.032 46.9796 41.376C47.2756 40.72 47.7236 40.212 48.3236 39.852C48.9316 39.484 49.7036 39.3 50.6396 39.3C51.5676 39.3 52.3316 39.484 52.9316 39.852C53.5316 40.212 53.9756 40.724 54.2636 41.388C54.5596 42.044 54.7076 42.816 54.7076 43.704ZM48.4556 43.704C48.4556 44.304 48.5316 44.82 48.6836 45.252C48.8356 45.684 49.0716 46.016 49.3916 46.248C49.7116 46.48 50.1236 46.596 50.6276 46.596C51.1476 46.596 51.5636 46.48 51.8756 46.248C52.1956 46.016 52.4276 45.684 52.5716 45.252C52.7236 44.82 52.7996 44.304 52.7996 43.704C52.7996 42.8 52.6316 42.092 52.2956 41.58C51.9596 41.068 51.4076 40.812 50.6396 40.812C50.1276 40.812 49.7116 40.928 49.3916 41.16C49.0716 41.392 48.8356 41.724 48.6836 42.156C48.5316 42.588 48.4556 43.104 48.4556 43.704ZM63.5863 43.632C63.5863 44.592 63.4023 45.396 63.0343 46.044C62.6663 46.692 62.1303 47.18 61.4263 47.508C60.7303 47.836 59.8903 48 58.9063 48H56.4823V39.432H59.1703C60.0663 39.432 60.8423 39.592 61.4983 39.912C62.1623 40.232 62.6743 40.704 63.0343 41.328C63.4023 41.944 63.5863 42.712 63.5863 43.632ZM61.7023 43.68C61.7023 43.048 61.6103 42.528 61.4263 42.12C61.2423 41.712 60.9663 41.412 60.5983 41.22C60.2383 41.02 59.7943 40.92 59.2663 40.92H58.2943V46.5H59.0743C59.9623 46.5 60.6223 46.264 61.0543 45.792C61.4863 45.32 61.7023 44.616 61.7023 43.68Z" fill="white"/>
<path d="M26.605 29.9121L70.3408 6.00008L72.6033 10.1382L28.8675 34.0502L26.605 29.9121Z" fill="#BD1919"/>
</svg>
